<svg width="30" height="30" viewBox="0 0 30 30" fill="none" xmlns="http://www.w3.org/2000/svg">
<path d="M21.0404 15.7071C20.6499 16.0976 20.0167 16.0976 19.6262 15.7071L16 12.0809L16 20.3333C16 20.8856 15.5523 21.3333 15 21.3333C14.4477 21.3333 14 20.8856 14 20.3333L14 12.0809L10.3738 15.7071C9.98324 16.0976 9.35007 16.0976 8.95955 15.7071C8.56902 15.3166 8.56902 14.6834 8.95955 14.2929L14.2923 8.96015C14.4798 8.77261 14.7348 8.66667 15 8.66667C15.2652 8.66667 15.5196 8.77203 15.7071 8.95957L21.0404 14.2929C21.431 14.6834 21.431 15.3166 21.0404 15.7071Z" fill="#6FAAE8"/>
<path fill-rule="evenodd" clip-rule="evenodd" d="M29.3333 15C29.3333 22.9161 22.9161 29.3333 15 29.3333C7.08391 29.3333 0.666657 22.9161 0.666656 15C0.666656 7.08392 7.0839 0.666672 15 0.666672C22.9161 0.666671 29.3333 7.08392 29.3333 15ZM15 27.3333C21.8115 27.3333 27.3333 21.8115 27.3333 15C27.3333 8.18849 21.8115 2.66667 15 2.66667C8.18848 2.66667 2.66666 8.18849 2.66666 15C2.66666 21.8115 8.18848 27.3333 15 27.3333Z" fill="#6FAAE8"/>
</svg>
